<?xml version="1.0" encoding="utf-8"?>
<!-- Generator: Adobe Illustrator 25.0.1, SVG Export Plug-In . SVG Version: 6.00 Build 0)  -->
<svg version="1.0" id="katman_1" xmlns="http://www.w3.org/2000/svg" xmlns:xlink="http://www.w3.org/1999/xlink" x="0px" y="0px"
	 viewBox="0 0 600 400" style="enable-background:new 0 0 600 400;" xml:space="preserve">
<style type="text/css">
	.st0{fill:#5259A4;}
</style>
<g>
	<path d="M246.8,249.8v-99.1h18.2v99.1H246.8z M421.2,182.4h17.4v8.2c3.7-6.6,12.3-10.1,19.7-10.1c9.2,0,16.6,4,20,11.2
		c5.3-8.2,12.5-11.2,21.4-11.2c12.4,0,24.3,7.5,24.3,25.6v43.7h-17.6v-40c0-7.2-3.6-12.7-11.9-12.7c-7.8,0-12.4,6-12.4,13.3v39.4
		h-18v-40c0-7.2-3.7-12.7-11.9-12.7c-7.9,0-12.6,5.9-12.6,13.3v39.4h-18.2V182.4z M306.1,251.8c-20.5,0-35.3-15.2-35.3-35.6
		c0-20.1,14.8-35.7,35.3-35.7c20.7,0,35.3,15.7,35.3,35.7C341.4,236.4,326.6,251.8,306.1,251.8L306.1,251.8z M306.1,197
		c-10.6,0-19.2,8.6-19.2,19.2c0,10.6,8.6,19.2,19.2,19.2c10.6,0,19.1-8.6,19.2-19.2C325.2,205.5,316.7,197,306.1,197L306.1,197z
		 M380.3,251.8c-20.5,0-35.3-15.2-35.3-35.6c0-20.1,14.8-35.7,35.3-35.7c20.7,0,35.3,15.7,35.3,35.7
		C415.6,236.4,400.7,251.8,380.3,251.8L380.3,251.8z M380.3,196.7c-10.7,0-19.4,8.7-19.4,19.4c0,10.7,8.7,19.4,19.4,19.4
		c10.7,0,19.4-8.7,19.4-19.4C399.6,205.4,391,196.7,380.3,196.7L380.3,196.7z M380.3,196.7"/>
</g>
<path class="st0" d="M142,221.4c-11.6,0-20.9-9.4-20.9-20.9s9.4-20.9,20.9-20.9s20.9,9.4,20.9,20.9S153.6,221.4,142,221.4z
	 M215.5,192.8h-44.8l38.8-22.4l-7.7-13.3L163,179.5l22.4-38.8l-13.3-7.7l-22.4,38.8V127h-15.4v44.8L111.9,133l-13.3,7.7l22.4,38.8
	l-38.8-22.4l-7.7,13.3l38.8,22.4H68.5v15.4h44.8l-38.8,22.4l7.7,13.3l38.8-22.4l-22.4,38.8l13.3,7.7l22.4-38.8V274h15.4v-45.7
	l22.8,39.5l12.5-7.2L162.2,221l39.6,22.9l7.7-13.3l-38.8-22.4h44.8V192.8z"/>
</svg>
